<?xml version="1.0" encoding="UTF-8" standalone="no"?>
<svg
   xmlns:dc="http://purl.org/dc/elements/1.1/"
   xmlns:cc="http://creativecommons.org/ns#"
   xmlns:rdf="http://www.w3.org/1999/02/22-rdf-syntax-ns#"
   xmlns:svg="http://www.w3.org/2000/svg"
   xmlns="http://www.w3.org/2000/svg"
   xmlns:sodipodi="http://sodipodi.sourceforge.net/DTD/sodipodi-0.dtd"
   xmlns:inkscape="http://www.inkscape.org/namespaces/inkscape"
   width="210mm"
   height="297mm"
   viewBox="0 0 210 297"
   version="1.1"
   id="svg943"
   inkscape:version="1.0.1 (c497b03c, 2020-09-10)"
   sodipodi:docname="aaaa.svg">
  <defs
     id="defs937" />
  <sodipodi:namedview
     id="base"
     pagecolor="#ffffff"
     bordercolor="#666666"
     borderopacity="1.0"
     inkscape:pageopacity="0.0"
     inkscape:pageshadow="2"
     inkscape:zoom="0.35"
     inkscape:cx="-67.142857"
     inkscape:cy="560"
     inkscape:document-units="mm"
     inkscape:current-layer="layer1"
     inkscape:document-rotation="0"
     showgrid="false"
     inkscape:window-width="1440"
     inkscape:window-height="875"
     inkscape:window-x="262"
     inkscape:window-y="1105"
     inkscape:window-maximized="0" />
  <metadata
     id="metadata940">
    <rdf:RDF>
      <cc:Work
         rdf:about="">
        <dc:format>image/svg+xml</dc:format>
        <dc:type
           rdf:resource="http://purl.org/dc/dcmitype/StillImage" />
        <dc:title></dc:title>
      </cc:Work>
    </rdf:RDF>
  </metadata>
  <g
     inkscape:label="图层 1"
     inkscape:groupmode="layer"
     id="layer1"
     style="display:inline">
    <path
      class="line1"
       style="fill:none;stroke:0;stroke-width:2px;stroke-linecap:butt;stroke-linejoin:miter;stroke-opacity:1"
       d="m 28.72619,67.27976 c 5.416561,-0.722207 26.677575,-3.588541 29.482143,-3.779761 6.021022,-0.410525 17.127256,-0.706321 24.190475,0 8.254664,0.825466 16.667924,0.592072 24.946432,1.511906 0.42257,0.04695 5.56794,-0.479676 6.04762,0 0.61566,0.615664 -2.2687,3.502004 -6.80358,7.559522 -14.384133,12.870018 -29.830105,24.483247 -43.845232,37.797623 -0.890524,0.84599 -10.724632,8.93013 -9.07143,10.58333 1.259922,1.25992 3.563069,-0.3238 5.291666,-0.75595 4.802889,-1.20073 9.646764,-2.27455 14.363097,-3.77976 5.882402,-1.87737 24.153563,-9.82739 33.261899,-9.82739 1.71309,0 0.61013,6.80743 -2.26785,12.85119 -1.38571,2.91 -12.362827,22.59345 -12.851192,23.43453 -2.495566,4.29792 -6.354146,8.02967 -7.559524,12.85119 -0.305575,1.2223 -0.8909,2.88886 0,3.77976 3.133331,3.13333 24.702406,12.0139 27.214286,12.85119 4.13472,1.37824 13.25925,1.57864 13.60714,4.53572 1.48323,12.60746 -11.06435,26.62243 -15.875,34.7738 -4.30519,7.29492 -8.46511,14.67605 -12.85119,21.92262 -1.411335,2.33177 -2.97267,4.57066 -4.535712,6.80357 -0.204359,0.29195 -1.086824,0.88831 -0.755954,0.75596 3.582045,-1.43282 9.313466,-5.13451 12.095236,-6.80357"
       id="path947" />
  </g>
</svg>
