<?xml version="1.0" encoding="UTF-8" standalone="no"?>
<svg
   xmlns:dc="http://purl.org/dc/elements/1.1/"
   xmlns:cc="http://creativecommons.org/ns#"
   xmlns:rdf="http://www.w3.org/1999/02/22-rdf-syntax-ns#"
   xmlns:svg="http://www.w3.org/2000/svg"
   xmlns="http://www.w3.org/2000/svg"
   xmlns:sodipodi="http://sodipodi.sourceforge.net/DTD/sodipodi-0.dtd"
   xmlns:inkscape="http://www.inkscape.org/namespaces/inkscape"
   width="210mm"
   height="297mm"
   viewBox="0 0 210 297"
   version="1.1"
   id="svg943"
   inkscape:version="1.0.1 (c497b03c, 2020-09-10)"
   sodipodi:docname="mytext.svg">
  <defs
     id="defs937">
    <rect
       x="130.02381"
       y="130.02381"
       width="87.690476"
       height="74.083333"
       id="rect1034" />
  </defs>
  <sodipodi:namedview
     id="base"
     pagecolor="#ffffff"
     bordercolor="#666666"
     borderopacity="1.0"
     inkscape:pageopacity="0.0"
     inkscape:pageshadow="2"
     inkscape:zoom="0.35"
     inkscape:cx="-67.142857"
     inkscape:cy="560"
     inkscape:document-units="mm"
     inkscape:current-layer="layer1"
     inkscape:document-rotation="0"
     showgrid="false"
     inkscape:window-width="1440"
     inkscape:window-height="875"
     inkscape:window-x="262"
     inkscape:window-y="1105"
     inkscape:window-maximized="0" />
  <metadata
     id="metadata940">
    <rdf:RDF>
      <cc:Work
         rdf:about="">
        <dc:format>image/svg+xml</dc:format>
        <dc:type
           rdf:resource="http://purl.org/dc/dcmitype/StillImage" />
        <dc:title></dc:title>
      </cc:Work>
    </rdf:RDF>
  </metadata>
  <g
     inkscape:label="图层 1"
     inkscape:groupmode="layer"
     id="layer1"
     style="display:inline">
    <g
       aria-label="this is good practice"
       id="text1030">
      <path   class="mytext1"
         d="m 33.997186,146.58585 q -0.365179,0.0965 -0.799261,0.15848 -0.427192,0.062 -0.764811,0.062 -1.178221,0 -1.791448,-0.6339 -0.613227,-0.6339 -0.613227,-2.0326 v -4.09277 h -0.875053 v -1.08865 h 0.875053 v -2.21175 h 1.295355 v 2.21175 h 2.673392 v 1.08865 h -2.673392 v 3.5071 q 0,0.60634 0.02756,0.95085 0.02756,0.33762 0.192925,0.63389 0.151584,0.27561 0.413411,0.40652 0.268718,0.12403 0.813042,0.12403 0.316949,0 0.661458,-0.0896 0.344509,-0.0965 0.496094,-0.15848 h 0.0689 z"
         id="path1038" />
      <path  style="fill:none;stroke:0" class="mytext1"
         d="m 42.003582,146.65475 h -1.295355 v -4.38215 q 0,-0.53055 -0.06201,-0.99219 -0.06201,-0.46853 -0.227376,-0.73036 -0.172254,-0.28939 -0.496093,-0.42719 -0.323839,-0.1447 -0.840603,-0.1447 -0.530544,0 -1.10932,0.26183 -0.578775,0.26183 -1.10932,0.66835 v 5.74641 h -1.295354 v -10.72112 h 1.295354 v 3.87917 q 0.606337,-0.50298 1.254014,-0.78548 0.647678,-0.2825 1.329806,-0.2825 1.247124,0 1.901691,0.75103 0.654568,0.75103 0.654568,2.16352 z"

         id="path1040" />
      <path  style="fill:none;stroke:0" class="mytext1"
         d="m 45.889646,137.66995 h -1.460719 v -1.34358 h 1.460719 z m -0.08268,8.9848 h -1.295355 v -7.69633 h 1.295355 z"

         id="path1042" />
      <path  style="fill:none;stroke:0" class="mytext1"
         d="m 53.882262,144.43611 q 0,1.0542 -0.875054,1.72944 -0.868163,0.67524 -2.377114,0.67524 -0.854383,0 -1.570962,-0.19982 -0.70969,-0.2067 -1.192003,-0.44786 v -1.45383 h 0.0689 q 0.613227,0.46165 1.364257,0.73725 0.75103,0.26872 1.440049,0.26872 0.854383,0 1.336696,-0.27561 0.482313,-0.2756 0.482313,-0.86816 0,-0.45475 -0.261827,-0.68902 -0.261827,-0.23427 -1.005967,-0.39963 -0.275608,-0.062 -0.72347,-0.14469 -0.440972,-0.0827 -0.806151,-0.17915 -1.012858,-0.26872 -1.440049,-0.78548 -0.420302,-0.52365 -0.420302,-1.28157 0,-0.47543 0.192926,-0.89573 0.199815,-0.4203 0.599446,-0.75103 0.38585,-0.32384 0.978406,-0.50987 0.599446,-0.19293 1.336696,-0.19293 0.689019,0 1.391818,0.17226 0.709689,0.16536 1.178221,0.40652 v 1.38493 h -0.0689 q -0.496094,-0.36518 -1.205783,-0.61323 -0.709689,-0.25494 -1.391817,-0.25494 -0.70969,0 -1.198893,0.27561 -0.489203,0.26872 -0.489203,0.80615 0,0.47542 0.296278,0.71658 0.289388,0.24116 0.937065,0.39274 0.35829,0.0827 0.799262,0.16537 0.447862,0.0827 0.74414,0.15158 0.902614,0.2067 1.391817,0.70969 0.489204,0.50987 0.489204,1.35047 z"

         id="path1044" />
      <path  style="fill:none;stroke:0" class="mytext1"
         d="m 62.095363,137.66995 h -1.460719 v -1.34358 h 1.460719 z m -0.08268,8.9848 h -1.295355 v -7.69633 h 1.295355 z"

         id="path1046" />
      <path  style="fill:none;stroke:0" class="mytext1"
         d="m 70.087981,144.43611 q 0,1.0542 -0.875054,1.72944 -0.868163,0.67524 -2.377114,0.67524 -0.854383,0 -1.570962,-0.19982 -0.70969,-0.2067 -1.192003,-0.44786 v -1.45383 h 0.0689 q 0.613227,0.46165 1.364257,0.73725 0.75103,0.26872 1.440049,0.26872 0.854383,0 1.336696,-0.27561 0.482313,-0.2756 0.482313,-0.86816 0,-0.45475 -0.261827,-0.68902 -0.261827,-0.23427 -1.005967,-0.39963 -0.275608,-0.062 -0.72347,-0.14469 -0.440972,-0.0827 -0.806151,-0.17915 -1.012858,-0.26872 -1.440049,-0.78548 -0.420302,-0.52365 -0.420302,-1.28157 0,-0.47543 0.192926,-0.89573 0.199815,-0.4203 0.599446,-0.75103 0.38585,-0.32384 0.978406,-0.50987 0.599446,-0.19293 1.336696,-0.19293 0.689019,0 1.391818,0.17226 0.709689,0.16536 1.178221,0.40652 v 1.38493 h -0.0689 q -0.496094,-0.36518 -1.205783,-0.61323 -0.709689,-0.25494 -1.391817,-0.25494 -0.70969,0 -1.198893,0.27561 -0.489203,0.26872 -0.489203,0.80615 0,0.47542 0.296278,0.71658 0.289388,0.24116 0.937065,0.39274 0.35829,0.0827 0.799262,0.16537 0.447862,0.0827 0.74414,0.15158 0.902614,0.2067 1.391817,0.70969 0.489204,0.50987 0.489204,1.35047 z"

         id="path1048" />
      <path  style="fill:none;stroke:0" class="mytext1"
         d="m 83.151773,145.7797 q 0,1.95681 -0.888834,2.87321 -0.888834,0.91639 -2.735403,0.91639 -0.613227,0 -1.198893,-0.0896 -0.578775,-0.0827 -1.143771,-0.24116 v -1.32291 h 0.0689 q 0.316949,0.12402 1.005967,0.30317 0.689019,0.18603 1.378037,0.18603 0.661458,0 1.09554,-0.15847 0.434082,-0.15848 0.675238,-0.44097 0.241157,-0.26872 0.344509,-0.64768 0.103353,-0.37896 0.103353,-0.84749 v -0.7028 q -0.585666,0.46853 -1.1231,0.7028 -0.530544,0.22737 -1.357367,0.22737 -1.378037,0 -2.191079,-0.99219 -0.806151,-0.99907 -0.806151,-2.81119 0,-0.99219 0.275607,-1.70877 0.282498,-0.72347 0.764811,-1.24712 0.447862,-0.4892 1.088649,-0.75792 0.640787,-0.27561 1.274684,-0.27561 0.668348,0 1.11621,0.13781 0.454753,0.13091 0.957736,0.40652 l 0.08268,-0.33073 h 1.212673 z m -1.295355,-1.24023 v -4.19613 q -0.516764,-0.23426 -0.964626,-0.33072 -0.440972,-0.10336 -0.881944,-0.10336 -1.067978,0 -1.681205,0.71658 -0.613226,0.71658 -0.613226,2.08084 0,1.29535 0.454752,1.9637 0.454752,0.66835 1.508951,0.66835 0.564995,0 1.12999,-0.2136 0.571885,-0.22048 1.047308,-0.58566 z"

         id="path1050" />
      <path  style="fill:none;stroke:0" class="mytext1"
         d="m 92.260596,142.81003 q 0,1.88102 -0.964626,2.96967 -0.964626,1.08865 -2.58382,1.08865 -1.632974,0 -2.5976,-1.08865 -0.957736,-1.08865 -0.957736,-2.96967 0,-1.88102 0.957736,-2.96967 0.964626,-1.09554 2.5976,-1.09554 1.619194,0 2.58382,1.09554 0.964626,1.08865 0.964626,2.96967 z m -1.336696,0 q 0,-1.49517 -0.585666,-2.21864 -0.585666,-0.73036 -1.626084,-0.73036 -1.054198,0 -1.639864,0.73036 -0.578776,0.72347 -0.578776,2.21864 0,1.44694 0.585666,2.19797 0.585666,0.74414 1.632974,0.74414 1.033528,0 1.619194,-0.73725 0.592556,-0.74414 0.592556,-2.20486 z"

         id="path1052" />
      <path  style="fill:none;stroke:0" class="mytext1"
         d="m 100.83199,142.81003 q 0,1.88102 -0.964628,2.96967 -0.964626,1.08865 -2.58382,1.08865 -1.632974,0 -2.5976,-1.08865 -0.957736,-1.08865 -0.957736,-2.96967 0,-1.88102 0.957736,-2.96967 0.964626,-1.09554 2.5976,-1.09554 1.619194,0 2.58382,1.09554 0.964628,1.08865 0.964628,2.96967 z m -1.336698,0 q 0,-1.49517 -0.585666,-2.21864 -0.585666,-0.73036 -1.626084,-0.73036 -1.054198,0 -1.639864,0.73036 -0.578776,0.72347 -0.578776,2.21864 0,1.44694 0.585666,2.19797 0.585666,0.74414 1.632974,0.74414 1.033528,0 1.619194,-0.73725 0.592556,-0.74414 0.592556,-2.20486 z"

         id="path1054" />
      <path  style="fill:none;stroke:0" class="mytext1"
         d="m 109.08643,146.65475 h -1.29536 v -0.80615 q -0.5581,0.48232 -1.16444,0.75103 -0.60634,0.26872 -1.31602,0.26872 -1.37804,0 -2.19108,-1.06109 -0.80616,-1.06109 -0.80616,-2.94211 0,-0.9784 0.27561,-1.74321 0.2825,-0.76482 0.75792,-1.30225 0.46854,-0.52365 1.08865,-0.79926 0.62701,-0.27561 1.29536,-0.27561 0.60633,0 1.07487,0.13092 0.46853,0.12402 0.98529,0.39274 v -3.33485 h 1.29536 z m -1.29536,-1.8948 v -4.41661 q -0.52365,-0.23426 -0.93706,-0.32383 -0.41341,-0.0896 -0.90262,-0.0896 -1.08865,0 -1.69498,0.75792 -0.60634,0.75792 -0.60634,2.14974 0,1.37115 0.46853,2.08773 0.46854,0.70969 1.50206,0.70969 0.55122,0 1.11621,-0.24116 0.565,-0.24805 1.0542,-0.6339 z"

         id="path1056" />
      <path  style="fill:none;stroke:0" class="mytext1"
         d="m 123.36979,142.71357 q 0,0.93706 -0.26872,1.71565 -0.26872,0.77171 -0.75792,1.30914 -0.45475,0.50987 -1.07487,0.79237 -0.61323,0.27561 -1.30224,0.27561 -0.59945,0 -1.08865,-0.13091 -0.48232,-0.13092 -0.9853,-0.40653 v 3.22461 h -1.29536 v -10.53509 h 1.29536 v 0.80615 q 0.51676,-0.43408 1.15755,-0.72347 0.64768,-0.29628 1.37804,-0.29628 1.39182,0 2.16352,1.0542 0.77859,1.04731 0.77859,2.91455 z m -1.3367,0.0344 q 0,-1.39182 -0.47542,-2.08084 -0.47542,-0.68902 -1.46072,-0.68902 -0.55811,0 -1.1231,0.24116 -0.565,0.24116 -1.08176,0.6339 v 4.36149 q 0.55121,0.24804 0.94395,0.33761 0.39964,0.0896 0.90262,0.0896 1.08176,0 1.68809,-0.73036 0.60634,-0.73036 0.60634,-2.16352 z"

         id="path1058" />
      <path  style="fill:none;stroke:0" class="mytext1"
         d="m 130.19107,140.37091 h -0.0689 q -0.28939,-0.0689 -0.565,-0.0965 -0.26871,-0.0344 -0.64078,-0.0344 -0.59945,0 -1.15755,0.26872 -0.55811,0.26183 -1.07487,0.68213 v 5.46391 h -1.29536 v -7.69633 h 1.29536 v 1.13688 q 0.7717,-0.62012 1.35736,-0.87506 0.59256,-0.26182 1.20579,-0.26182 0.33762,0 0.4892,0.0207 0.15158,0.0138 0.45475,0.062 z"

         id="path1060" />
      <path  style="fill:none;stroke:0" class="mytext1"
         d="m 137.40509,146.65475 h -1.28846 v -0.81993 q -0.17226,0.11714 -0.46854,0.33073 -0.28938,0.20671 -0.56499,0.33073 -0.32384,0.15847 -0.74414,0.26183 -0.4203,0.11024 -0.9853,0.11024 -1.04042,0 -1.76389,-0.68902 -0.72347,-0.68902 -0.72347,-1.757 0,-0.87505 0.37207,-1.41248 0.37896,-0.54433 1.07487,-0.85439 0.7028,-0.31005 1.6881,-0.4203 0.9853,-0.11024 2.11529,-0.16536 v -0.19982 q 0,-0.44097 -0.15848,-0.73036 -0.15158,-0.28939 -0.44097,-0.45475 -0.27561,-0.15847 -0.66146,-0.2136 -0.38585,-0.0551 -0.80615,-0.0551 -0.50987,0 -1.13688,0.13781 -0.62701,0.13091 -1.29536,0.38585 h -0.0689 v -1.31603 q 0.37896,-0.10335 1.09554,-0.22737 0.71658,-0.12403 1.41249,-0.12403 0.81304,0 1.41249,0.13781 0.60633,0.13091 1.04731,0.45475 0.43408,0.31695 0.66145,0.81993 0.22738,0.50298 0.22738,1.24712 z m -1.28846,-1.8948 v -2.14284 q -0.59256,0.0344 -1.39871,0.10335 -0.79926,0.0689 -1.2678,0.19981 -0.5581,0.15848 -0.90261,0.4961 -0.34451,0.33073 -0.34451,0.91639 0,0.66146 0.39963,0.99908 0.39963,0.33073 1.21956,0.33073 0.68213,0 1.24713,-0.26183 0.56499,-0.26872 1.04731,-0.64079 z"

         id="path1062" />
      <path  style="fill:none;stroke:0" class="mytext1"
         d="m 145.60441,146.17244 q -0.64768,0.31006 -1.23334,0.48231 -0.57878,0.17226 -1.23335,0.17226 -0.83371,0 -1.52962,-0.24116 -0.69591,-0.24804 -1.192,-0.74414 -0.50298,-0.49609 -0.77859,-1.25401 -0.27561,-0.75792 -0.27561,-1.77078 0,-1.88791 1.03353,-2.96278 1.04042,-1.07487 2.74229,-1.07487 0.66146,0 1.29536,0.18604 0.64079,0.18603 1.17133,0.45475 v 1.44005 h -0.0689 q -0.59256,-0.46164 -1.22645,-0.70969 -0.62701,-0.24805 -1.22646,-0.24805 -1.10243,0 -1.74321,0.74414 -0.6339,0.73725 -0.6339,2.17041 0,1.39182 0.62012,2.14285 0.627,0.74414 1.75699,0.74414 0.39274,0 0.79926,-0.10335 0.40653,-0.10336 0.73036,-0.26872 0.2825,-0.14469 0.53055,-0.30317 0.24805,-0.16536 0.39274,-0.2825 h 0.0689 z"

         id="path1064" />
      <path  style="fill:none;stroke:0" class="mytext1"
         d="m 151.26814,146.58585 q -0.36518,0.0965 -0.79926,0.15848 -0.42719,0.062 -0.76481,0.062 -1.17822,0 -1.79145,-0.6339 -0.61322,-0.6339 -0.61322,-2.0326 v -4.09277 h -0.87506 v -1.08865 h 0.87506 v -2.21175 h 1.29535 v 2.21175 h 2.67339 v 1.08865 h -2.67339 v 3.5071 q 0,0.60634 0.0276,0.95085 0.0276,0.33762 0.19293,0.63389 0.15158,0.27561 0.41341,0.40652 0.26872,0.12403 0.81304,0.12403 0.31695,0 0.66146,-0.0896 0.34451,-0.0965 0.49609,-0.15848 h 0.0689 z"

         id="path1066" />
      <path  style="fill:none;stroke:0" class="mytext1"
         d="m 154.23092,137.66995 h -1.46072 v -1.34358 h 1.46072 z m -0.0827,8.9848 h -1.29535 v -7.69633 h 1.29535 z"

         id="path1068" />
      <path  style="fill:none;stroke:0" class="mytext1"
         d="m 162.41647,146.17244 q -0.64768,0.31006 -1.23334,0.48231 -0.57878,0.17226 -1.23335,0.17226 -0.83371,0 -1.52962,-0.24116 -0.69591,-0.24804 -1.192,-0.74414 -0.50298,-0.49609 -0.77859,-1.25401 -0.27561,-0.75792 -0.27561,-1.77078 0,-1.88791 1.03353,-2.96278 1.04042,-1.07487 2.74229,-1.07487 0.66146,0 1.29536,0.18604 0.64078,0.18603 1.17133,0.45475 v 1.44005 h -0.0689 q -0.59256,-0.46164 -1.22646,-0.70969 -0.627,-0.24805 -1.22645,-0.24805 -1.10243,0 -1.74322,0.74414 -0.63389,0.73725 -0.63389,2.17041 0,1.39182 0.62011,2.14285 0.62701,0.74414 1.757,0.74414 0.39274,0 0.79926,-0.10335 0.40652,-0.10336 0.73036,-0.26872 0.2825,-0.14469 0.53055,-0.30317 0.24804,-0.16536 0.39274,-0.2825 h 0.0689 z"

         id="path1070" />
      <path  style="fill:none;stroke:0" class="mytext1"
         d="m 170.52621,142.94094 h -5.67062 q 0,0.70969 0.21359,1.24024 0.2136,0.52365 0.58567,0.86127 0.35829,0.33073 0.84749,0.49609 0.4961,0.16537 1.08865,0.16537 0.78548,0 1.57785,-0.31006 0.79927,-0.31695 1.13688,-0.62012 h 0.0689 v 1.41249 q -0.65457,0.27561 -1.3367,0.46164 -0.68213,0.18604 -1.43316,0.18604 -1.91547,0 -2.99034,-1.03353 -1.07487,-1.04042 -1.07487,-2.949 0,-1.88791 1.02664,-2.99723 1.03353,-1.10932 2.71473,-1.10932 1.55718,0 2.39779,0.90951 0.84749,0.9095 0.84749,2.58382 z m -1.2609,-0.99218 q -0.007,-1.01975 -0.51677,-1.57785 -0.50298,-0.55811 -1.53651,-0.55811 -1.04042,0 -1.66053,0.61323 -0.61323,0.61322 -0.69591,1.52273 z"

         id="path1072" />
    </g>
    <text
       xml:space="preserve"
       id="text1032"
       style="line-height:1.25;font-family:sans-serif;font-size:12.69999999999999929px;white-space:pre;shape-inside:url(#rect1034);" />
  </g>
</svg>
