<?xml version="1.0" encoding="UTF-8" standalone="no"?>
<svg
   xmlns:dc="http://purl.org/dc/elements/1.1/"
   xmlns:cc="http://creativecommons.org/ns#"
   xmlns:rdf="http://www.w3.org/1999/02/22-rdf-syntax-ns#"
   xmlns:svg="http://www.w3.org/2000/svg"
   xmlns="http://www.w3.org/2000/svg"
   xmlns:sodipodi="http://sodipodi.sourceforge.net/DTD/sodipodi-0.dtd"
   xmlns:inkscape="http://www.inkscape.org/namespaces/inkscape"
   width="210mm"
   height="297mm"
   viewBox="0 0 210 297"
   version="1.1"
   id="svg8"
   sodipodi:docname="num4.svg"
   inkscape:version="1.0.1 (c497b03c, 2020-09-10)">
  <defs
     id="defs2" />
  <sodipodi:namedview
     id="base"
     pagecolor="#ffffff"
     bordercolor="#666666"
     borderopacity="1.0"
     inkscape:pageopacity="0.0"
     inkscape:pageshadow="2"
     inkscape:zoom="0.35"
     inkscape:cx="400"
     inkscape:cy="560"
     inkscape:document-units="mm"
     inkscape:current-layer="layer1"
     inkscape:document-rotation="0"
     showgrid="false"
     inkscape:window-width="1440"
     inkscape:window-height="855"
     inkscape:window-x="262"
     inkscape:window-y="1103"
     inkscape:window-maximized="0" />
  <metadata
     id="metadata5">
    <rdf:RDF>
      <cc:Work
         rdf:about="">
        <dc:format>image/svg+xml</dc:format>
        <dc:type
           rdf:resource="http://purl.org/dc/dcmitype/StillImage" />
        <dc:title></dc:title>
      </cc:Work>
    </rdf:RDF>
  </metadata>
  <g
     inkscape:label="图层 1"
     inkscape:groupmode="layer"
     id="layer1">
    <g
       aria-label="03"
       id="text12"
       style="font-size:50.8px;line-height:1.25;font-family:sans-serif;stroke-width:0.264583">
      <path
         d="m 69.396426,84.364287 h 8.4836 q 3.4544,0 5.9436,2.54 2.4892,2.4892 2.4892,5.9436 v 21.132803 q 0,3.4544 -2.4892,5.9944 -2.4892,2.4892 -5.9436,2.4892 h -8.4836 q -3.4544,0 -5.9944,-2.4892 -2.4892,-2.4892 -2.4892,-5.9944 V 92.847887 q 0,-3.5052 2.4892,-5.9944 2.54,-2.4892 5.9944,-2.4892 z m 0.1016,30.327603 q 0.3048,1.7272 1.3208,2.6416 1.0668,0.9144 2.794,0.9144 1.778,0 2.9972,-1.27 1.27,-1.27 1.27,-2.9972 V 99.604287 Z m 8.3312,-22.606003 q -0.9144,-3.5052 -4.2164,-3.5052 -1.7272,0 -2.9972,1.27 -1.2192,1.2192 -1.2192,2.9972 v 14.376403 z"
         style="font-style:normal;font-variant:normal;font-weight:normal;font-stretch:normal;font-size:50.8px;font-family:Silom;-inkscape-font-specification:Silom;stroke-width:0.264583"
         id="path55" />
      <path
         d="m 94.845638,84.364287 h 25.400002 v 4.2164 l -12.7,8.4836 h 4.2672 q 3.6576,0 6.0452,2.794 2.3876,2.794003 2.3876,5.689603 v 8.4328 q 0,3.5052 -2.4892,5.9944 -2.4892,2.4892 -5.9436,2.4892 h -8.4836 q -7.467602,0 -8.483602,-8.4836 h 4.2672 q 0.3048,4.2672 4.216402,4.2672 h 4.2164 q 1.778,0 2.9972,-1.2192 1.27,-1.27 1.27,-3.048 v -8.4328 q 0,-1.016 -1.0668,-2.6416 -1.0668,-1.6256 -3.2004,-1.6256 h -8.432802 v -4.216403 l 12.700002,-8.4836 H 94.845638 Z"
         style="font-style:normal;font-variant:normal;font-weight:normal;font-stretch:normal;font-size:50.8px;font-family:Silom;-inkscape-font-specification:Silom;stroke-width:0.264583"
         id="path57" />
    </g>
  </g>
</svg>
