<?xml version="1.0" encoding="UTF-8" standalone="no"?>
<svg
   xmlns:dc="http://purl.org/dc/elements/1.1/"
   xmlns:cc="http://creativecommons.org/ns#"
   xmlns:rdf="http://www.w3.org/1999/02/22-rdf-syntax-ns#"
   xmlns:svg="http://www.w3.org/2000/svg"
   xmlns="http://www.w3.org/2000/svg"
   xmlns:sodipodi="http://sodipodi.sourceforge.net/DTD/sodipodi-0.dtd"
   xmlns:inkscape="http://www.inkscape.org/namespaces/inkscape"
   width="210mm"
   height="297mm"
   viewBox="0 0 210 297"
   version="1.1"
   id="svg8"
   inkscape:version="1.0.1 (c497b03c, 2020-09-10)"
   sodipodi:docname="text1.svg">
  <defs
     id="defs2">
    <rect
       x="130.77976"
       y="186.72024"
       width="79.375"
       height="37.041667"
       id="rect849" />
    <rect
       x="112.6369"
       y="194.27976"
       width="84.666667"
       height="71.059524"
       id="rect20" />
  </defs>
  <sodipodi:namedview
     id="base"
     pagecolor="#ffffff"
     bordercolor="#666666"
     borderopacity="1.0"
     inkscape:pageopacity="0.0"
     inkscape:pageshadow="2"
     inkscape:zoom="0.49772193"
     inkscape:cx="-2039.6444"
     inkscape:cy="3447.5768"
     inkscape:document-units="mm"
     inkscape:current-layer="layer1"
     inkscape:document-rotation="0"
     showgrid="false"
     inkscape:window-width="1440"
     inkscape:window-height="875"
     inkscape:window-x="262"
     inkscape:window-y="1105"
     inkscape:window-maximized="0" />
  <metadata
     id="metadata5">
    <rdf:RDF>
      <cc:Work
         rdf:about="">
        <dc:format>image/svg+xml</dc:format>
        <dc:type
           rdf:resource="http://purl.org/dc/dcmitype/StillImage" />
        <dc:title></dc:title>
      </cc:Work>
    </rdf:RDF>
  </metadata>
  <g
     inkscape:label="图层 1"
     inkscape:groupmode="layer"
     id="layer1">
    <text
       xml:space="preserve"
       id="text18"
       style="fill:black;fill-opacity:1;line-height:1.25;stroke:none;font-family:sans-serif;font-style:normal;font-weight:normal;font-size:10.58333333000000032px;white-space:pre;shape-inside:url(#rect20);" />
    <text
       xml:space="preserve"
       id="text847"
       style="fill:black;fill-opacity:1;line-height:1.25;stroke:none;font-family:sans-serif;font-style:normal;font-weight:normal;font-size:10.58333333000000032px;white-space:pre;shape-inside:url(#rect849);" />
    <g
       aria-label="this 是对方"
       id="text981"
       style="font-style:normal;font-weight:normal;font-size:12.7px;line-height:1.25;font-family:sans-serif;fill:#000000;fill-opacity:1;stroke:none;stroke-width:0.264583">
      <path
         d="m -623.24464,856.73383 q -0.35967,0.093 -0.76275,0.14262 -0.40307,0.0558 -0.98598,0.0558 -1.30225,0 -1.94097,-0.5271 -0.63252,-0.5271 -0.63252,-1.80454 v -3.25561 h -0.91777 v -1.51309 h 0.91777 v -1.99057 h 2.23242 v 1.99057 h 2.0898 v 1.51309 h -2.0898 v 2.46806 q 0,0.36587 0.006,0.63872 0.006,0.27286 0.0992,0.4899 0.0868,0.21704 0.30386,0.34726 0.22324,0.12403 0.64492,0.12403 0.17364,0 0.45269,-0.0744 0.28525,-0.0744 0.39687,-0.13642 h 0.18604 z"
         style="font-style:normal;font-variant:normal;font-weight:bold;font-stretch:normal;font-size:12.7px;font-family:sans-serif;-inkscape-font-specification:'sans-serif Bold';stroke-width:0.264583"
         id="path983" />
      <path
         d="m -614.92267,856.79584 h -2.24482 v -3.45406 q 0,-0.42167 -0.0434,-0.83715 -0.0434,-0.42168 -0.14883,-0.62012 -0.12402,-0.22944 -0.36587,-0.33486 -0.23564,-0.10542 -0.66352,-0.10542 -0.30386,0 -0.62012,0.0992 -0.31006,0.0992 -0.67593,0.31626 v 4.93614 h -2.23242 v -9.64903 h 2.23242 v 3.45406 q 0.59531,-0.46509 1.14102,-0.71314 0.5519,-0.24804 1.22163,-0.24804 1.12861,0 1.76113,0.65732 0.63872,0.65732 0.63872,1.96577 z"
         style="font-style:normal;font-variant:normal;font-weight:bold;font-stretch:normal;font-size:12.7px;font-family:sans-serif;-inkscape-font-specification:'sans-serif Bold';stroke-width:0.264583"
         id="path985" />
      <path
         d="m -610.63146,856.79584 h -2.23242 v -6.96392 h 2.23242 z m 0.062,-7.95611 h -2.35644 v -1.69292 h 2.35644 z"
         style="font-style:normal;font-variant:normal;font-weight:bold;font-stretch:normal;font-size:12.7px;font-family:sans-serif;-inkscape-font-specification:'sans-serif Bold';stroke-width:0.264583"
         id="path987" />
      <path
         d="m -602.47072,854.58822 q 0,1.079 -0.96738,1.74253 -0.96738,0.65732 -2.6479,0.65732 -0.93018,0 -1.68672,-0.17363 -0.75654,-0.17363 -1.21543,-0.38447 v -1.83555 h 0.20464 q 0.16743,0.11782 0.38447,0.26045 0.22325,0.13643 0.62632,0.29766 0.34727,0.14262 0.78755,0.24804 0.44028,0.0992 0.94258,0.0992 0.65732,0 0.97358,-0.14262 0.31626,-0.14883 0.31626,-0.43409 0,-0.25424 -0.18603,-0.36587 -0.18604,-0.11782 -0.70694,-0.22324 -0.24804,-0.0558 -0.67592,-0.11782 -0.42168,-0.0682 -0.76895,-0.16123 -0.94878,-0.24805 -1.40767,-0.76895 -0.45888,-0.5271 -0.45888,-1.30844 0,-1.00459 0.94878,-1.66812 0.95498,-0.66972 2.60449,-0.66972 0.78135,0 1.49448,0.16123 0.71934,0.15502 1.12241,0.33486 v 1.76113 h -0.19223 q -0.4961,-0.34106 -1.13482,-0.5519 -0.63252,-0.21704 -1.28364,-0.21704 -0.5395,0 -0.91157,0.14882 -0.36587,0.14883 -0.36587,0.42168 0,0.24805 0.16743,0.37828 0.16743,0.13022 0.78755,0.26044 0.34106,0.0682 0.73174,0.13643 0.39687,0.062 0.79375,0.16123 0.88056,0.22944 1.30224,0.72554 0.42168,0.48989 0.42168,1.22783 z"
         style="font-style:normal;font-variant:normal;font-weight:bold;font-stretch:normal;font-size:12.7px;font-family:sans-serif;-inkscape-font-specification:'sans-serif Bold';stroke-width:0.264583"
         id="path989" />
      <path
         d="m -587.76154,851.19618 h -6.97631 v -4.43384 h 6.97631 z m -1.00458,-2.71611 v -0.78755 h -5.00435 v 0.78755 z m 0,1.78593 v -0.86196 h -5.00435 v 0.86196 z m 3.26181,5.8043 -0.48369,0.97979 h -4.27881 q -1.82314,0 -3.86333,-1.76734 -0.56431,1.50069 -2.15801,2.35025 l -0.5457,-0.84956 q 0.94258,-0.44029 1.50068,-1.25264 0.55811,-0.81236 0.59532,-2.45567 l 0.94257,0.15503 q 0,0.61392 -0.0806,1.048 0.97978,1.0356 2.1208,1.43867 v -2.98276 h -4.68188 v -0.93018 h 10.38696 v 0.93018 h -4.70049 v 0.97358 h 3.73311 v 0.93018 h -3.73311 v 1.37046 q 0.65732,0.11782 1.01699,0.11162 z"
         style="font-style:normal;font-variant:normal;font-weight:bold;font-stretch:normal;font-size:12.7px;font-family:sans-serif;-inkscape-font-specification:'sans-serif Bold';stroke-width:0.264583"
         id="path991" />
      <path
         d="m -573.37482,849.62108 h -1.20922 v 7.10034 q -0.0806,0.39688 -0.40928,0.61392 -0.32246,0.22324 -0.46509,0.22324 h -1.39526 l -0.31626,-0.96738 q 0.97978,0.0806 1.45727,0.0806 0.0744,0 0.16743,-0.14262 v -6.90811 h -3.52226 v -0.93017 h 3.52226 v -2.42466 h 0.96119 v 2.42466 h 1.20922 z m -5.3206,6.44922 -0.95498,0.42168 q -0.5395,-1.79834 -1.17822,-2.74712 -0.97359,2.35024 -3.12539,3.81372 l -0.73794,-0.73794 q 2.25102,-1.45107 3.29282,-3.96255 -1.00459,-1.43247 -2.35025,-2.52387 l 0.70694,-0.56431 q 1.6061,1.41387 2.03398,2.07119 0.65733,-1.79834 0.73794,-3.21221 h -4.01216 v -0.87436 h 4.97954 q -0.0496,2.48667 -1.0728,5.01675 1.0666,1.5999 1.68052,3.29902 z m 2.51147,-2.15801 -0.89917,0.54571 q -0.64492,-1.77354 -1.77973,-3.01998 l 0.70073,-0.49609 q 1.27124,1.22163 1.97817,2.97036 z"
         style="font-style:normal;font-variant:normal;font-weight:bold;font-stretch:normal;font-size:12.7px;font-family:sans-serif;-inkscape-font-specification:'sans-serif Bold';stroke-width:0.264583"
         id="path993" />
      <path
         d="m -560.40817,849.16219 h -6.38721 q 0,0.85577 -0.0806,2.18282 h 4.7811 q -0.0372,1.86655 -0.32866,3.54707 -0.28525,1.68052 -0.71313,2.02778 -0.42168,0.34727 -0.88677,0.34727 -0.64492,0 -2.31304,-0.42168 l -0.19223,-1.12862 q 1.66811,0.60772 2.28203,0.60772 0.27285,0 0.42788,-0.21084 0.16123,-0.21704 0.35967,-1.41387 0.20463,-1.20303 0.24184,-2.41225 h -3.7331 q -0.44029,2.34404 -1.44488,3.55947 -1.00459,1.20923 -2.57968,1.79834 l -0.66353,-0.91157 q 1.66811,-0.60152 2.51147,-1.63091 0.84336,-1.0356 1.06661,-2.34405 0.22324,-1.30844 0.22324,-3.60908 h -3.175 v -0.93637 h 5.20898 q -0.47129,-0.97979 -1.73012,-1.61851 l 0.89917,-0.5457 q 1.43247,0.89917 1.89755,1.92236 l -0.32246,0.21084 v 0.031 h 4.65088 z"
         style="font-style:normal;font-variant:normal;font-weight:bold;font-stretch:normal;font-size:12.7px;font-family:sans-serif;-inkscape-font-specification:'sans-serif Bold';stroke-width:0.264583"
         id="path995" />
    </g>
  </g>
</svg>
